<?xml version="1.0" encoding="UTF-8" standalone="no"?>
<!-- Created with Inkscape (http://www.inkscape.org/) -->

<svg
   xmlns:dc="http://purl.org/dc/elements/1.1/"
   xmlns:cc="http://creativecommons.org/ns#"
   xmlns:rdf="http://www.w3.org/1999/02/22-rdf-syntax-ns#"
   xmlns:svg="http://www.w3.org/2000/svg"
   xmlns="http://www.w3.org/2000/svg"
   xmlns:sodipodi="http://sodipodi.sourceforge.net/DTD/sodipodi-0.dtd"
   xmlns:inkscape="http://www.inkscape.org/namespaces/inkscape"
   width="4.466156mm"
   height="12.604747mm"
   viewBox="0 0 4.466156 12.604747"
   version="1.1"
   id="svg3831"
   inkscape:version="0.92.3 (2405546, 2018-03-11)"
   sodipodi:docname="treble_clef.svg">
  <defs
     id="defs3825" />
  <sodipodi:namedview
     id="base"
     pagecolor="#ffffff"
     bordercolor="#666666"
     borderopacity="1.0"
     inkscape:pageopacity="0.0"
     inkscape:pageshadow="2"
     inkscape:zoom="2.8"
     inkscape:cx="87.693961"
     inkscape:cy="-30.097623"
     inkscape:document-units="mm"
     inkscape:current-layer="layer1"
     showgrid="false"
     fit-margin-top="0"
     fit-margin-left="0"
     fit-margin-right="0"
     fit-margin-bottom="0"
     inkscape:window-width="1874"
     inkscape:window-height="1032"
     inkscape:window-x="0"
     inkscape:window-y="24"
     inkscape:window-maximized="1" />
  <metadata
     id="metadata3828">
    <rdf:RDF>
      <cc:Work
         rdf:about="">
        <dc:format>image/svg+xml</dc:format>
        <dc:type
           rdf:resource="http://purl.org/dc/dcmitype/StillImage" />
        <dc:title></dc:title>
      </cc:Work>
    </rdf:RDF>
  </metadata>
  <g
     inkscape:label="Layer 1"
     inkscape:groupmode="layer"
     id="layer1"
     transform="translate(-30.185181,-75.241368)">
    <g
       aria-label="ð„ž"
       style="font-style:normal;font-weight:normal;font-size:10.58333302px;line-height:1.25;font-family:sans-serif;letter-spacing:0px;word-spacing:0px;fill:#000000;fill-opacity:1;stroke:none;stroke-width:0.26458332"
       id="text3835">
      <path
         d="m 33.508345,84.745198 q 0.3175,1.11125 0.3175,1.820334 0,0.560916 -0.391584,0.92075 -0.391583,0.359833 -0.952499,0.359833 -0.529167,0 -0.92075,-0.3175 -0.391584,-0.306917 -0.391584,-0.751417 0,-0.148166 0.05292,-0.306916 0.0635,-0.148167 0.148167,-0.28575 0.09525,-0.127 0.232833,-0.211667 0.148167,-0.07408 0.306917,-0.07408 0.211666,0 0.370416,0.105833 0.169334,0.116417 0.254,0.28575 0.08467,0.169333 0.08467,0.359833 0,0.656167 -0.740833,0.656167 0.1905,0.296333 0.613833,0.296333 0.127,0 0.254,-0.03175 0.127,-0.02117 0.275167,-0.105833 0.15875,-0.07408 0.275166,-0.201083 0.116417,-0.116417 0.1905,-0.338667 0.07408,-0.211667 0.07408,-0.497417 0,-0.22225 -0.296333,-1.598083 -0.232833,0.0635 -0.582083,0.0635 -1.026583,0 -1.767417,-0.762 -0.73025,-0.762 -0.73025,-1.820333 0,-0.370417 0.116417,-0.751417 0.127,-0.381 0.275167,-0.66675 0.15875,-0.296333 0.455083,-0.656166 0.306917,-0.370417 0.508,-0.582084 0.211667,-0.22225 0.582083,-0.592666 -0.04233,-0.127 -0.07408,-0.243417 -0.02117,-0.116417 -0.04233,-0.232833 -0.02117,-0.116417 -0.04233,-0.22225 -0.02117,-0.116417 -0.04233,-0.22225 -0.01058,-0.116417 -0.02117,-0.22225 -0.01058,-0.116417 -0.02117,-0.22225 0,-0.105834 0,-0.22225 0,-0.9525 0.34925,-1.5875 0.34925,-0.645584 0.6985,-0.645584 0.08467,0 0.179916,0.08467 0.105834,0.08467 0.211667,0.264583 0.116416,0.169334 0.201083,0.402167 0.09525,0.232833 0.148167,0.560917 0.0635,0.328083 0.0635,0.6985 0,1.68275 -1.195917,2.783416 l 0.275167,1.248833 q 0.02117,0 0.04233,0 0.02117,-0.01058 0.04233,-0.01058 0.02117,0 0.03175,0 0.02117,-0.01058 0.04233,-0.01058 0.02117,0 0.04233,0 0.02117,0 0.03175,0 0.02117,-0.01058 0.03175,-0.01058 0.02117,0 0.04233,0 0.645583,0 1.090083,0.529167 0.4445,0.518583 0.4445,1.27 -0.01058,1.248833 -1.143,1.693333 z m -0.08467,-7.873999 q 0,-0.582084 -0.338666,-0.582084 -0.1905,0 -0.370417,0.15875 -0.169333,0.15875 -0.28575,0.423334 -0.116417,0.254 -0.1905,0.582083 -0.0635,0.3175 -0.0635,0.645583 0,0.4445 0.137583,0.772584 0.09525,-0.05292 0.1905,-0.137584 0.105834,-0.09525 0.201084,-0.201083 0.09525,-0.116417 0.1905,-0.243417 0.09525,-0.137583 0.169333,-0.275166 0.07408,-0.148167 0.137583,-0.296334 0.07408,-0.148166 0.116417,-0.28575 0.05292,-0.148166 0.07408,-0.28575 0.03175,-0.148166 0.03175,-0.275166 z m 0.762,6.540499 q 0,-0.296333 -0.09525,-0.529166 -0.08467,-0.243417 -0.254,-0.402167 -0.15875,-0.169333 -0.381,-0.254 -0.22225,-0.09525 -0.486833,-0.09525 l 0.47625,2.391833 q 0.740833,-0.306916 0.740833,-1.11125 z m -0.963083,1.17475 -0.486833,-2.434166 q -0.1905,0.04233 -0.370417,0.1905 -0.169333,0.137583 -0.28575,0.34925 -0.105833,0.201083 -0.105833,0.402166 0,0.116417 0.03175,0.232834 0.04233,0.116416 0.09525,0.201083 0.05292,0.08467 0.116416,0.169333 0.0635,0.08467 0.127,0.137584 0.07408,0.05292 0.127,0.09525 0.05292,0.04233 0.08467,0.0635 0.04233,0.02117 0.04233,0.02117 l -0.08467,0.05292 q -0.34925,-0.09525 -0.66675,-0.423333 -0.306917,-0.328084 -0.306917,-0.8255 0,-0.338667 0.15875,-0.656167 0.15875,-0.3175 0.381,-0.518583 0.22225,-0.211667 0.465667,-0.296334 l -0.1905,-1.132416 q -1.661584,1.386416 -1.661584,2.677583 0,0.772583 0.582084,1.291167 0.582083,0.518583 1.322916,0.518583 0.179917,0 0.624417,-0.116417 z"
         style="stroke-width:0.26458332"
         id="path3837"
         inkscape:connector-curvature="0" />
    </g>
  </g>
</svg>
